<?xml version="1.0" encoding="UTF-8" standalone="no"?>
<!-- Created with Inkscape (http://www.inkscape.org/) -->

<svg
   xmlns:dc="http://purl.org/dc/elements/1.1/"
   xmlns:cc="http://creativecommons.org/ns#"
   xmlns:rdf="http://www.w3.org/1999/02/22-rdf-syntax-ns#"
   xmlns:svg="http://www.w3.org/2000/svg"
   xmlns="http://www.w3.org/2000/svg"
   xmlns:sodipodi="http://sodipodi.sourceforge.net/DTD/sodipodi-0.dtd"
   xmlns:inkscape="http://www.inkscape.org/namespaces/inkscape"
   width="100"
   height="100"
   id="svg2"
   version="1.1"
   inkscape:version="0.48.4 r9939"
   sodipodi:docname="wqueen.svg">
  <defs
     id="defs4" />
  <sodipodi:namedview
     id="base"
     pagecolor="#ffffff"
     bordercolor="#666666"
     borderopacity="1.0"
     inkscape:pageopacity="0.0"
     inkscape:pageshadow="2"
     inkscape:zoom="1.979899"
     inkscape:cx="90.404403"
     inkscape:cy="38.238358"
     inkscape:document-units="px"
     inkscape:current-layer="layer1"
     showgrid="false"
     inkscape:window-width="1360"
     inkscape:window-height="706"
     inkscape:window-x="-8"
     inkscape:window-y="-8"
     inkscape:window-maximized="1"
     showguides="true"
     inkscape:guide-bbox="true" />
  <metadata
     id="metadata7">
    <rdf:RDF>
      <cc:Work
         rdf:about="">
        <dc:format>image/svg+xml</dc:format>
        <dc:type
           rdf:resource="http://purl.org/dc/dcmitype/StillImage" />
        <dc:title></dc:title>
      </cc:Work>
    </rdf:RDF>
  </metadata>
  <g
     inkscape:label="Layer 1"
     inkscape:groupmode="layer"
     id="layer1"
     transform="translate(0,-952.36218)">
    <path
       style="fill:#000000;fill-opacity:1;stroke:#000000;stroke-width:1px;stroke-linecap:butt;stroke-linejoin:miter;stroke-opacity:1"
       d="m 18.617386,1049.9969 63.571429,0 c -0.188415,-11.131 -7.126526,-21.3445 -19.642857,-26.7857 12.537949,-10.8029 9.225718,-38.18074 -1.785714,-43.78495 9.888808,-13.01076 6.265902,-25.03022 -0.505802,-20.58804 -7.265044,4.76581 -8.225499,3.9034 -7.712146,2.41579 3.109617,-9.01116 -7.023798,-9.06349 -5.117611,0.25318 0.15242,0.74497 -1.880634,1.82463 -8.206552,-3.05048 -6.614308,-5.09737 -8.471768,6.80006 0.470682,20.25527 -11.06607,8.52719 -12.850098,34.72113 -1.785714,43.78493 -9.423353,5.4232 -17.411721,12.6401 -19.285715,27.5 z"
       id="path2985"
       inkscape:connector-curvature="0"
       sodipodi:nodetypes="ccccssssccc" />
  </g>
</svg>
