<?xml version="1.0" encoding="UTF-8" standalone="no"?>
<!-- Created with Inkscape (http://www.inkscape.org/) -->

<svg
   xmlns:dc="http://purl.org/dc/elements/1.1/"
   xmlns:cc="http://creativecommons.org/ns#"
   xmlns:rdf="http://www.w3.org/1999/02/22-rdf-syntax-ns#"
   xmlns:svg="http://www.w3.org/2000/svg"
   xmlns="http://www.w3.org/2000/svg"
   xmlns:sodipodi="http://sodipodi.sourceforge.net/DTD/sodipodi-0.dtd"
   xmlns:inkscape="http://www.inkscape.org/namespaces/inkscape"
   width="100"
   height="100"
   id="svg2"
   version="1.1"
   inkscape:version="0.48.4 r9939"
   sodipodi:docname="bbishop.svg">
  <defs
     id="defs4" />
  <sodipodi:namedview
     id="base"
     pagecolor="#ffffff"
     bordercolor="#666666"
     borderopacity="1.0"
     inkscape:pageopacity="0.0"
     inkscape:pageshadow="2"
     inkscape:zoom="2.8"
     inkscape:cx="42.553269"
     inkscape:cy="10.764486"
     inkscape:document-units="px"
     inkscape:current-layer="layer1"
     showgrid="false"
     inkscape:window-width="1360"
     inkscape:window-height="706"
     inkscape:window-x="-8"
     inkscape:window-y="-8"
     inkscape:window-maximized="1" />
  <metadata
     id="metadata7">
    <rdf:RDF>
      <cc:Work
         rdf:about="">
        <dc:format>image/svg+xml</dc:format>
        <dc:type
           rdf:resource="http://purl.org/dc/dcmitype/StillImage" />
        <dc:title></dc:title>
      </cc:Work>
    </rdf:RDF>
  </metadata>
  <g
     inkscape:label="Layer 1"
     inkscape:groupmode="layer"
     id="layer1"
     transform="translate(0,-952.36218)">
    <path
       style="fill:#ffffff;fill-opacity:1;stroke:#000000;stroke-width:1px;stroke-linecap:butt;stroke-linejoin:miter;stroke-opacity:1"
       d="m 18.214285,1051.4714 63.571429,0 c -0.188415,-11.131 -7.126526,-21.3445 -19.642857,-26.7857 12.537949,-10.8029 9.225718,-34.35671 -1.785714,-39.96095 9.66516,-12.7165 1.287411,-30.81383 0.04111,-23.62446 -0.420601,2.42626 -9.377385,17.56307 -10.997455,11.85051 -0.276892,-0.97636 5.474017,-15.0608 5.438298,-16.05314 -0.272438,-7.56885 -3.901122,-1.04131 -5.140319,-1.20635 -10.146968,-1.35143 -16.197388,7.07999 -10.413064,28.31916 -11.06607,8.52722 -12.850098,30.89713 -1.785714,39.96093 -9.423353,5.4232 -17.411721,12.6401 -19.285714,27.5 z"
       id="path2985"
       inkscape:connector-curvature="0"
       sodipodi:nodetypes="ccccssssccc" />
  </g>
</svg>
