<?xml version="1.0" encoding="UTF-8" standalone="no"?>
<!-- Created with Inkscape (http://www.inkscape.org/) -->

<svg
   xmlns:dc="http://purl.org/dc/elements/1.1/"
   xmlns:cc="http://creativecommons.org/ns#"
   xmlns:rdf="http://www.w3.org/1999/02/22-rdf-syntax-ns#"
   xmlns:svg="http://www.w3.org/2000/svg"
   xmlns="http://www.w3.org/2000/svg"
   xmlns:sodipodi="http://sodipodi.sourceforge.net/DTD/sodipodi-0.dtd"
   xmlns:inkscape="http://www.inkscape.org/namespaces/inkscape"
   width="100"
   height="100"
   id="svg2"
   version="1.1"
   inkscape:version="0.48.4 r9939"
   sodipodi:docname="bking.svg">
  <defs
     id="defs4" />
  <sodipodi:namedview
     id="base"
     pagecolor="#ffffff"
     bordercolor="#666666"
     borderopacity="1.0"
     inkscape:pageopacity="0.0"
     inkscape:pageshadow="2"
     inkscape:zoom="8"
     inkscape:cx="14.97686"
     inkscape:cy="67.994573"
     inkscape:document-units="px"
     inkscape:current-layer="layer1"
     showgrid="false"
     inkscape:window-width="1360"
     inkscape:window-height="706"
     inkscape:window-x="-8"
     inkscape:window-y="-8"
     inkscape:window-maximized="1"
     showguides="true"
     inkscape:guide-bbox="true" />
  <metadata
     id="metadata7">
    <rdf:RDF>
      <cc:Work
         rdf:about="">
        <dc:format>image/svg+xml</dc:format>
        <dc:type
           rdf:resource="http://purl.org/dc/dcmitype/StillImage" />
        <dc:title></dc:title>
      </cc:Work>
    </rdf:RDF>
  </metadata>
  <g
     inkscape:label="Layer 1"
     inkscape:groupmode="layer"
     id="layer1"
     transform="translate(0,-952.36218)">
    <path
       style="fill:#ffffff;fill-opacity:1;stroke:#000000;stroke-width:1px;stroke-linecap:butt;stroke-linejoin:miter;stroke-opacity:1"
       d="m 18.554886,1051.1219 63.571429,0 c -0.188415,-11.131 -7.126526,-21.3445 -19.642857,-26.7857 12.537949,-10.8029 9.225718,-38.18074 -1.785714,-43.78495 9.888808,-13.01076 6.265901,-25.03022 -0.505802,-20.58804 -7.265044,4.76581 -7.750256,3.72154 -9.4328,2.95212 -0.853695,-0.39039 -0.28086,-2.53069 0.122956,-2.61594 5.922909,-1.25043 3.129686,-1.57928 -0.119904,-2.08611 -0.826618,-6.3967 -1.234808,-6.35418 -2.001069,-0.12085 -3.162594,0.10476 -7.353091,0.37918 -0.20017,2.06366 1.238408,0.39931 0.0137,2.17492 0.11373,2.6636 0.152421,0.74497 -3.193134,1.63713 -9.519052,-3.23798 -6.614308,-5.09737 -8.471768,6.80006 0.470682,20.25527 -11.06607,8.52719 -12.850098,34.72112 -1.785714,43.78492 -9.423353,5.4232 -17.411721,12.6401 -19.285715,27.5 z"
       id="path2985"
       inkscape:connector-curvature="0"
       sodipodi:nodetypes="ccccssscccssccc" />
  </g>
</svg>
