<?xml version="1.0" encoding="UTF-8" standalone="no"?>
<!-- Created with Inkscape (http://www.inkscape.org/) -->

<svg
   xmlns:dc="http://purl.org/dc/elements/1.1/"
   xmlns:cc="http://creativecommons.org/ns#"
   xmlns:rdf="http://www.w3.org/1999/02/22-rdf-syntax-ns#"
   xmlns:svg="http://www.w3.org/2000/svg"
   xmlns="http://www.w3.org/2000/svg"
   xmlns:sodipodi="http://sodipodi.sourceforge.net/DTD/sodipodi-0.dtd"
   xmlns:inkscape="http://www.inkscape.org/namespaces/inkscape"
   width="100"
   height="100"
   id="svg2"
   version="1.1"
   inkscape:version="0.48.4 r9939"
   sodipodi:docname="bknight.svg">
  <defs
     id="defs4" />
  <sodipodi:namedview
     id="base"
     pagecolor="#ffffff"
     bordercolor="#666666"
     borderopacity="1.0"
     inkscape:pageopacity="0.0"
     inkscape:pageshadow="2"
     inkscape:zoom="2"
     inkscape:cx="143.06293"
     inkscape:cy="127.78572"
     inkscape:document-units="px"
     inkscape:current-layer="layer1"
     showgrid="false"
     inkscape:window-width="1360"
     inkscape:window-height="706"
     inkscape:window-x="-8"
     inkscape:window-y="-8"
     inkscape:window-maximized="1"
     showguides="true"
     inkscape:guide-bbox="true" />
  <metadata
     id="metadata7">
    <rdf:RDF>
      <cc:Work
         rdf:about="">
        <dc:format>image/svg+xml</dc:format>
        <dc:type
           rdf:resource="http://purl.org/dc/dcmitype/StillImage" />
        <dc:title></dc:title>
      </cc:Work>
    </rdf:RDF>
  </metadata>
  <g
     inkscape:label="Layer 1"
     inkscape:groupmode="layer"
     id="layer1"
     transform="translate(0,-952.36218)">
    <path
       style="fill:#ffffff;fill-opacity:1;stroke:#000000;stroke-width:1px;stroke-linecap:butt;stroke-linejoin:miter;stroke-opacity:1"
       d="m 18.567838,1048.4463 63.571429,0 c -0.188415,-11.131 -7.335472,-22.3231 -19.851803,-27.7643 -7.660018,-11.3556 -6.534397,-20.3085 -2.561602,-31.07368 1.036318,-2.80813 13.871547,6.99396 17.985463,2.55092 4.464808,-4.822 -3.621885,-17.61075 -4.259647,-19.2492 -12.289283,-1.63513 -12.806976,-10.58403 -15.859218,-13.62754 -6.405659,-6.38736 -10.0475,-3.01037 -26.799315,-3.35167 -1.678761,7.48372 7.224955,20.53132 9.688951,29.46944 2.6104,11.04659 6.311607,27.30613 -0.595612,35.10413 -15.076123,3.7274 -21.977894,27.7441 -21.318646,27.9419 z"
       id="path2985"
       inkscape:connector-curvature="0"
       sodipodi:nodetypes="cccsacscccc" />
    <path
       sodipodi:type="arc"
       style="fill:#000000;fill-opacity:1;stroke:none"
       id="path4795"
       sodipodi:cx="54"
       sodipodi:cy="11.499999"
       sodipodi:rx="2.25"
       sodipodi:ry="2.25"
       d="m 56.25,11.499999 a 2.25,2.25 0 1 1 -4.5,0 2.25,2.25 0 1 1 4.5,0 z"
       transform="translate(0.35355339,954.83705)" />
  </g>
</svg>
